{
	"asset":{
		"generator":"Khronos glTF Blender I/O v4.1.62",
		"version":"2.0"
	},
	"scene":0,
	"scenes":[
		{
			"name":"Scene",
			"nodes":[
				0,
				1,
				2,
				3,
				4,
				5,
				6,
				7,
				8,
				9,
				10,
				11
			]
		}
	],
	"nodes":[
		{
			"mesh":0,
			"name":"Circle.001",
			"rotation":[
				0.7071068286895752,
				0,
				0,
				0.7071068286895752
			]
		},
		{
			"mesh":1,
			"name":"Circle.002_Circle.001",
			"rotation":[
				0.7071068286895752,
				0,
				0,
				0.7071068286895752
			]
		},
		{
			"mesh":2,
			"name":"Circle.003_Circle.002",
			"rotation":[
				0.7071068286895752,
				0,
				0,
				0.7071068286895752
			]
		},
		{
			"mesh":3,
			"name":"Circle.004_Circle.003",
			"rotation":[
				0.7071068286895752,
				0,
				0,
				0.7071068286895752
			]
		},
		{
			"mesh":4,
			"name":"Circle.005_Circle.004",
			"rotation":[
				0.7071068286895752,
				0,
				0,
				0.7071068286895752
			]
		},
		{
			"mesh":5,
			"name":"Circle.006",
			"rotation":[
				0.7071068286895752,
				0,
				0,
				0.7071068286895752
			]
		},
		{
			"mesh":6,
			"name":"Circle.007",
			"rotation":[
				0.7071068286895752,
				0,
				0,
				0.7071068286895752
			]
		},
		{
			"mesh":7,
			"name":"Circle.008",
			"rotation":[
				0.7071068286895752,
				0,
				0,
				0.7071068286895752
			]
		},
		{
			"mesh":8,
			"name":"Circle.009",
			"rotation":[
				0.7071068286895752,
				0,
				0,
				0.7071068286895752
			]
		},
		{
			"mesh":9,
			"name":"Circle.010",
			"rotation":[
				0.7071068286895752,
				0,
				0,
				0.7071068286895752
			]
		},
		{
			"mesh":10,
			"name":"Circle.011",
			"rotation":[
				0.7071068286895752,
				0,
				0,
				0.7071068286895752
			]
		},
		{
			"mesh":11,
			"name":"Mustang_Circle",
			"rotation":[
				0.7071068286895752,
				0,
				0,
				0.7071068286895752
			]
		}
	],
	"materials":[
		{
			"doubleSided":true,
			"name":"Material.007",
			"pbrMetallicRoughness":{
				"baseColorFactor":[
					0,
					0,
					0,
					1
				],
				"metallicFactor":0
			}
		},
		{
			"doubleSided":true,
			"name":"Material.003",
			"pbrMetallicRoughness":{
				"baseColorFactor":[
					0.8366450071334839,
					0.8366450071334839,
					0.8366450071334839,
					1
				],
				"roughnessFactor":0.5
			}
		},
		{
			"doubleSided":true,
			"name":"Material.004",
			"pbrMetallicRoughness":{
				"baseColorFactor":[
					0.800000011920929,
					0.03317499905824661,
					0.008301000110805035,
					1
				],
				"metallicFactor":0,
				"roughnessFactor":0.5
			}
		},
		{
			"doubleSided":true,
			"name":"Material.005",
			"pbrMetallicRoughness":{
				"baseColorFactor":[
					0.800000011920929,
					0.800000011920929,
					0.800000011920929,
					1
				],
				"metallicFactor":0,
				"roughnessFactor":0.3999999761581421
			}
		},
		{
			"doubleSided":true,
			"name":"Material.001",
			"pbrMetallicRoughness":{
				"baseColorFactor":[
					0.800000011920929,
					0.15325400233268738,
					0,
					1
				],
				"metallicFactor":0,
				"roughnessFactor":0.6546052694320679
			}
		},
		{
			"doubleSided":true,
			"name":"Material.002",
			"pbrMetallicRoughness":{
				"baseColorFactor":[
					0,
					0,
					0,
					1
				],
				"metallicFactor":0,
				"roughnessFactor":0.5
			}
		},
		{
			"doubleSided":true,
			"name":"Material.006",
			"pbrMetallicRoughness":{
				"baseColorFactor":[
					0.800000011920929,
					0.800000011920929,
					0.800000011920929,
					1
				],
				"metallicFactor":0,
				"roughnessFactor":0.3999999761581421
			}
		}
	],
	"meshes":[
		{
			"name":"Circle.001",
			"primitives":[
				{
					"attributes":{
						"POSITION":0,
						"NORMAL":1,
						"TEXCOORD_0":2
					},
					"indices":3,
					"material":0
				},
				{
					"attributes":{
						"POSITION":4,
						"NORMAL":5,
						"TEXCOORD_0":6
					},
					"indices":7,
					"material":1
				}
			]
		},
		{
			"name":"Circle.002_Circle.001",
			"primitives":[
				{
					"attributes":{
						"POSITION":8,
						"NORMAL":9,
						"TEXCOORD_0":10
					},
					"indices":3,
					"material":0
				},
				{
					"attributes":{
						"POSITION":11,
						"NORMAL":12,
						"TEXCOORD_0":13
					},
					"indices":7,
					"material":1
				}
			]
		},
		{
			"name":"Circle.003_Circle.002",
			"primitives":[
				{
					"attributes":{
						"POSITION":14,
						"NORMAL":15,
						"TEXCOORD_0":16
					},
					"indices":17,
					"material":2
				},
				{
					"attributes":{
						"POSITION":18,
						"NORMAL":19,
						"TEXCOORD_0":20
					},
					"indices":21,
					"material":3
				}
			]
		},
		{
			"name":"Circle.004_Circle.003",
			"primitives":[
				{
					"attributes":{
						"POSITION":22,
						"NORMAL":23,
						"TEXCOORD_0":24
					},
					"indices":25,
					"material":1
				}
			]
		},
		{
			"name":"Circle.005_Circle.004",
			"primitives":[
				{
					"attributes":{
						"POSITION":26,
						"NORMAL":27,
						"TEXCOORD_0":28
					},
					"indices":29,
					"material":1
				}
			]
		},
		{
			"name":"Circle.006",
			"primitives":[
				{
					"attributes":{
						"POSITION":30,
						"NORMAL":31,
						"TEXCOORD_0":32
					},
					"indices":33,
					"material":1
				}
			]
		},
		{
			"name":"Circle.007",
			"primitives":[
				{
					"attributes":{
						"POSITION":34,
						"NORMAL":35,
						"TEXCOORD_0":36
					},
					"indices":37,
					"material":1
				}
			]
		},
		{
			"name":"Circle.008",
			"primitives":[
				{
					"attributes":{
						"POSITION":38,
						"NORMAL":39,
						"TEXCOORD_0":40
					},
					"indices":41,
					"material":1
				}
			]
		},
		{
			"name":"Circle.009",
			"primitives":[
				{
					"attributes":{
						"POSITION":42,
						"NORMAL":43,
						"TEXCOORD_0":44
					},
					"indices":45,
					"material":1
				}
			]
		},
		{
			"name":"Circle.010",
			"primitives":[
				{
					"attributes":{
						"POSITION":46,
						"NORMAL":47,
						"TEXCOORD_0":48
					},
					"indices":49,
					"material":1
				}
			]
		},
		{
			"name":"Circle.011",
			"primitives":[
				{
					"attributes":{
						"POSITION":50,
						"NORMAL":51,
						"TEXCOORD_0":52
					},
					"indices":53,
					"material":1
				}
			]
		},
		{
			"name":"Mustang_Circle",
			"primitives":[
				{
					"attributes":{
						"POSITION":54,
						"NORMAL":55,
						"TEXCOORD_0":56
					},
					"indices":57,
					"material":4
				},
				{
					"attributes":{
						"POSITION":58,
						"NORMAL":59,
						"TEXCOORD_0":60
					},
					"indices":61,
					"material":5
				},
				{
					"attributes":{
						"POSITION":62,
						"NORMAL":63,
						"TEXCOORD_0":64
					},
					"indices":65,
					"material":6
				},
				{
					"attributes":{
						"POSITION":66,
						"NORMAL":67,
						"TEXCOORD_0":68
					},
					"indices":69,
					"material":0
				}
			]
		}
	],
	"accessors":[
		{
			"bufferView":0,
			"componentType":5126,
			"count":624,
			"max":[
				0.6749709844589233,
				1.2444740533828735,
				-0.15347500145435333
			],
			"min":[
				-0.6309369802474976,
				0.6554650068283081,
				-0.6368380188941956
			],
			"type":"VEC3"
		},
		{
			"bufferView":1,
			"componentType":5126,
			"count":624,
			"type":"VEC3"
		},
		{
			"bufferView":2,
			"componentType":5126,
			"count":624,
			"type":"VEC2"
		},
		{
			"bufferView":3,
			"componentType":5123,
			"count":1716,
			"type":"SCALAR"
		},
		{
			"bufferView":4,
			"componentType":5126,
			"count":528,
			"max":[
				0.6539289951324463,
				1.1395649909973145,
				-0.25933000445365906
			],
			"min":[
				-0.6098960041999817,
				0.7603740096092224,
				-0.5309839844703674
			],
			"type":"VEC3"
		},
		{
			"bufferView":5,
			"componentType":5126,
			"count":528,
			"type":"VEC3"
		},
		{
			"bufferView":6,
			"componentType":5126,
			"count":528,
			"type":"VEC2"
		},
		{
			"bufferView":7,
			"componentType":5123,
			"count":1140,
			"type":"SCALAR"
		},
		{
			"bufferView":8,
			"componentType":5126,
			"count":624,
			"max":[
				0.49775001406669617,
				-0.7797859907150269,
				-0.15347500145435333
			],
			"min":[
				-0.8081579804420471,
				-1.3687950372695923,
				-0.6368380188941956
			],
			"type":"VEC3"
		},
		{
			"bufferView":9,
			"componentType":5126,
			"count":624,
			"type":"VEC3"
		},
		{
			"bufferView":10,
			"componentType":5126,
			"count":624,
			"type":"VEC2"
		},
		{
			"bufferView":11,
			"componentType":5126,
			"count":528,
			"max":[
				0.47670799493789673,
				-0.8846949934959412,
				-0.25933000445365906
			],
			"min":[
				-0.7871170043945312,
				-1.2638859748840332,
				-0.5309839844703674
			],
			"type":"VEC3"
		},
		{
			"bufferView":12,
			"componentType":5126,
			"count":528,
			"type":"VEC3"
		},
		{
			"bufferView":13,
			"componentType":5126,
			"count":528,
			"type":"VEC2"
		},
		{
			"bufferView":14,
			"componentType":5126,
			"count":192,
			"max":[
				0.3045780062675476,
				-1.7219970226287842,
				-0.6542500257492065
			],
			"min":[
				-0.7400209903717041,
				-1.854753017425537,
				-0.7411670088768005
			],
			"type":"VEC3"
		},
		{
			"bufferView":15,
			"componentType":5126,
			"count":192,
			"type":"VEC3"
		},
		{
			"bufferView":16,
			"componentType":5126,
			"count":192,
			"type":"VEC2"
		},
		{
			"bufferView":17,
			"componentType":5123,
			"count":324,
			"type":"SCALAR"
		},
		{
			"bufferView":18,
			"componentType":5126,
			"count":24,
			"max":[
				0.30275198817253113,
				-1.7428549528121948,
				-0.6689050197601318
			],
			"min":[
				-0.7400209903717041,
				-1.854753017425537,
				-0.7350419759750366
			],
			"type":"VEC3"
		},
		{
			"bufferView":19,
			"componentType":5126,
			"count":24,
			"type":"VEC3"
		},
		{
			"bufferView":20,
			"componentType":5126,
			"count":24,
			"type":"VEC2"
		},
		{
			"bufferView":21,
			"componentType":5123,
			"count":36,
			"type":"SCALAR"
		},
		{
			"bufferView":22,
			"componentType":5126,
			"count":48,
			"max":[
				0.5545139908790588,
				-0.37842801213264465,
				-0.744920015335083
			],
			"min":[
				-0.7652879953384399,
				-0.6321039795875549,
				-0.765753984451294
			],
			"type":"VEC3"
		},
		{
			"bufferView":23,
			"componentType":5126,
			"count":48,
			"type":"VEC3"
		},
		{
			"bufferView":24,
			"componentType":5126,
			"count":48,
			"type":"VEC2"
		},
		{
			"bufferView":25,
			"componentType":5123,
			"count":72,
			"type":"SCALAR"
		},
		{
			"bufferView":26,
			"componentType":5126,
			"count":192,
			"max":[
				0.49003198742866516,
				0.30563899874687195,
				-0.8271690011024475
			],
			"min":[
				-0.6518930196762085,
				-0.7574750185012817,
				-1.0640239715576172
			],
			"type":"VEC3"
		},
		{
			"bufferView":27,
			"componentType":5126,
			"count":192,
			"type":"VEC3"
		},
		{
			"bufferView":28,
			"componentType":5126,
			"count":192,
			"type":"VEC2"
		},
		{
			"bufferView":29,
			"componentType":5123,
			"count":480,
			"type":"SCALAR"
		},
		{
			"bufferView":30,
			"componentType":5126,
			"count":144,
			"max":[
				0.4532270133495331,
				0.36273300647735596,
				-0.8264939785003662
			],
			"min":[
				-0.5258870124816895,
				-0.05796999856829643,
				-1.1042590141296387
			],
			"type":"VEC3"
		},
		{
			"bufferView":31,
			"componentType":5126,
			"count":144,
			"type":"VEC3"
		},
		{
			"bufferView":32,
			"componentType":5126,
			"count":144,
			"type":"VEC2"
		},
		{
			"bufferView":33,
			"componentType":5123,
			"count":384,
			"type":"SCALAR"
		},
		{
			"bufferView":34,
			"componentType":5126,
			"count":152,
			"max":[
				0.24119900166988373,
				-0.796205997467041,
				-0.8794090151786804
			],
			"min":[
				-0.568228006362915,
				-1.3330340385437012,
				-1.0613770484924316
			],
			"type":"VEC3"
		},
		{
			"bufferView":35,
			"componentType":5126,
			"count":152,
			"type":"VEC3"
		},
		{
			"bufferView":36,
			"componentType":5126,
			"count":152,
			"type":"VEC2"
		},
		{
			"bufferView":37,
			"componentType":5123,
			"count":384,
			"type":"SCALAR"
		},
		{
			"bufferView":38,
			"componentType":5126,
			"count":210,
			"max":[
				0.5957180261611938,
				0.25105300545692444,
				-0.8013430237770081
			],
			"min":[
				-0.6945670247077942,
				0.07278099656105042,
				-0.9305390119552612
			],
			"type":"VEC3"
		},
		{
			"bufferView":39,
			"componentType":5126,
			"count":210,
			"type":"VEC3"
		},
		{
			"bufferView":40,
			"componentType":5126,
			"count":210,
			"type":"VEC2"
		},
		{
			"bufferView":41,
			"componentType":5123,
			"count":552,
			"type":"SCALAR"
		},
		{
			"bufferView":42,
			"componentType":5126,
			"count":128,
			"max":[
				0.6946330070495605,
				1.564993977546692,
				-0.5010290145874023
			],
			"min":[
				-0.5844249725341797,
				1.2387440204620361,
				-0.5537940263748169
			],
			"type":"VEC3"
		},
		{
			"bufferView":43,
			"componentType":5126,
			"count":128,
			"type":"VEC3"
		},
		{
			"bufferView":44,
			"componentType":5126,
			"count":128,
			"type":"VEC2"
		},
		{
			"bufferView":45,
			"componentType":5123,
			"count":348,
			"type":"SCALAR"
		},
		{
			"bufferView":46,
			"componentType":5126,
			"count":100,
			"max":[
				0.6202920079231262,
				0.677590012550354,
				-0.5037220120429993
			],
			"min":[
				-0.7557839751243591,
				-0.8242650032043457,
				-0.5370129942893982
			],
			"type":"VEC3"
		},
		{
			"bufferView":47,
			"componentType":5126,
			"count":100,
			"type":"VEC3"
		},
		{
			"bufferView":48,
			"componentType":5126,
			"count":100,
			"type":"VEC2"
		},
		{
			"bufferView":49,
			"componentType":5123,
			"count":216,
			"type":"SCALAR"
		},
		{
			"bufferView":50,
			"componentType":5126,
			"count":72,
			"max":[
				0.36803901195526123,
				-1.7753570079803467,
				-0.5650889873504639
			],
			"min":[
				-0.8109170198440552,
				-1.9019989967346191,
				-0.6475399732589722
			],
			"type":"VEC3"
		},
		{
			"bufferView":51,
			"componentType":5126,
			"count":72,
			"type":"VEC3"
		},
		{
			"bufferView":52,
			"componentType":5126,
			"count":72,
			"type":"VEC2"
		},
		{
			"bufferView":53,
			"componentType":5123,
			"count":156,
			"type":"SCALAR"
		},
		{
			"bufferView":54,
			"componentType":5126,
			"count":812,
			"max":[
				0.6956949830055237,
				1.5257530212402344,
				-0.386029988527298
			],
			"min":[
				-0.8262140154838562,
				-1.878512978553772,
				-1.128378987312317
			],
			"type":"VEC3"
		},
		{
			"bufferView":55,
			"componentType":5126,
			"count":812,
			"type":"VEC3"
		},
		{
			"bufferView":56,
			"componentType":5126,
			"count":812,
			"type":"VEC2"
		},
		{
			"bufferView":57,
			"componentType":5123,
			"count":2670,
			"type":"SCALAR"
		},
		{
			"bufferView":58,
			"componentType":5126,
			"count":66,
			"max":[
				0.48204299807548523,
				0.35823699831962585,
				-0.8264939785003662
			],
			"min":[
				-0.6438850164413452,
				-1.3292460441589355,
				-1.0982539653778076
			],
			"type":"VEC3"
		},
		{
			"bufferView":59,
			"componentType":5126,
			"count":66,
			"type":"VEC3"
		},
		{
			"bufferView":60,
			"componentType":5126,
			"count":66,
			"type":"VEC2"
		},
		{
			"bufferView":61,
			"componentType":5123,
			"count":216,
			"type":"SCALAR"
		},
		{
			"bufferView":62,
			"componentType":5126,
			"count":32,
			"max":[
				0.6471289992332458,
				1.4437830448150635,
				-0.6146789789199829
			],
			"min":[
				-0.5282279849052429,
				1.3205649852752686,
				-0.7402600049972534
			],
			"type":"VEC3"
		},
		{
			"bufferView":63,
			"componentType":5126,
			"count":32,
			"type":"VEC3"
		},
		{
			"bufferView":64,
			"componentType":5126,
			"count":32,
			"type":"VEC2"
		},
		{
			"bufferView":65,
			"componentType":5123,
			"count":132,
			"type":"SCALAR"
		},
		{
			"bufferView":66,
			"componentType":5126,
			"count":10,
			"max":[
				0.38502898812294006,
				1.4683959484100342,
				-0.612159013748169
			],
			"min":[
				-0.26104098558425903,
				1.3643159866333008,
				-0.7539259791374207
			],
			"type":"VEC3"
		},
		{
			"bufferView":67,
			"componentType":5126,
			"count":10,
			"type":"VEC3"
		},
		{
			"bufferView":68,
			"componentType":5126,
			"count":10,
			"type":"VEC2"
		},
		{
			"bufferView":69,
			"componentType":5123,
			"count":24,
			"type":"SCALAR"
		}
	],
	"bufferViews":[
		{
			"buffer":0,
			"byteLength":7488,
			"byteOffset":0,
			"target":34962
		},
		{
			"buffer":0,
			"byteLength":7488,
			"byteOffset":7488,
			"target":34962
		},
		{
			"buffer":0,
			"byteLength":4992,
			"byteOffset":14976,
			"target":34962
		},
		{
			"buffer":0,
			"byteLength":3432,
			"byteOffset":19968,
			"target":34963
		},
		{
			"buffer":0,
			"byteLength":6336,
			"byteOffset":23400,
			"target":34962
		},
		{
			"buffer":0,
			"byteLength":6336,
			"byteOffset":29736,
			"target":34962
		},
		{
			"buffer":0,
			"byteLength":4224,
			"byteOffset":36072,
			"target":34962
		},
		{
			"buffer":0,
			"byteLength":2280,
			"byteOffset":40296,
			"target":34963
		},
		{
			"buffer":0,
			"byteLength":7488,
			"byteOffset":42576,
			"target":34962
		},
		{
			"buffer":0,
			"byteLength":7488,
			"byteOffset":50064,
			"target":34962
		},
		{
			"buffer":0,
			"byteLength":4992,
			"byteOffset":57552,
			"target":34962
		},
		{
			"buffer":0,
			"byteLength":6336,
			"byteOffset":62544,
			"target":34962
		},
		{
			"buffer":0,
			"byteLength":6336,
			"byteOffset":68880,
			"target":34962
		},
		{
			"buffer":0,
			"byteLength":4224,
			"byteOffset":75216,
			"target":34962
		},
		{
			"buffer":0,
			"byteLength":2304,
			"byteOffset":79440,
			"target":34962
		},
		{
			"buffer":0,
			"byteLength":2304,
			"byteOffset":81744,
			"target":34962
		},
		{
			"buffer":0,
			"byteLength":1536,
			"byteOffset":84048,
			"target":34962
		},
		{
			"buffer":0,
			"byteLength":648,
			"byteOffset":85584,
			"target":34963
		},
		{
			"buffer":0,
			"byteLength":288,
			"byteOffset":86232,
			"target":34962
		},
		{
			"buffer":0,
			"byteLength":288,
			"byteOffset":86520,
			"target":34962
		},
		{
			"buffer":0,
			"byteLength":192,
			"byteOffset":86808,
			"target":34962
		},
		{
			"buffer":0,
			"byteLength":72,
			"byteOffset":87000,
			"target":34963
		},
		{
			"buffer":0,
			"byteLength":576,
			"byteOffset":87072,
			"target":34962
		},
		{
			"buffer":0,
			"byteLength":576,
			"byteOffset":87648,
			"target":34962
		},
		{
			"buffer":0,
			"byteLength":384,
			"byteOffset":88224,
			"target":34962
		},
		{
			"buffer":0,
			"byteLength":144,
			"byteOffset":88608,
			"target":34963
		},
		{
			"buffer":0,
			"byteLength":2304,
			"byteOffset":88752,
			"target":34962
		},
		{
			"buffer":0,
			"byteLength":2304,
			"byteOffset":91056,
			"target":34962
		},
		{
			"buffer":0,
			"byteLength":1536,
			"byteOffset":93360,
			"target":34962
		},
		{
			"buffer":0,
			"byteLength":960,
			"byteOffset":94896,
			"target":34963
		},
		{
			"buffer":0,
			"byteLength":1728,
			"byteOffset":95856,
			"target":34962
		},
		{
			"buffer":0,
			"byteLength":1728,
			"byteOffset":97584,
			"target":34962
		},
		{
			"buffer":0,
			"byteLength":1152,
			"byteOffset":99312,
			"target":34962
		},
		{
			"buffer":0,
			"byteLength":768,
			"byteOffset":100464,
			"target":34963
		},
		{
			"buffer":0,
			"byteLength":1824,
			"byteOffset":101232,
			"target":34962
		},
		{
			"buffer":0,
			"byteLength":1824,
			"byteOffset":103056,
			"target":34962
		},
		{
			"buffer":0,
			"byteLength":1216,
			"byteOffset":104880,
			"target":34962
		},
		{
			"buffer":0,
			"byteLength":768,
			"byteOffset":106096,
			"target":34963
		},
		{
			"buffer":0,
			"byteLength":2520,
			"byteOffset":106864,
			"target":34962
		},
		{
			"buffer":0,
			"byteLength":2520,
			"byteOffset":109384,
			"target":34962
		},
		{
			"buffer":0,
			"byteLength":1680,
			"byteOffset":111904,
			"target":34962
		},
		{
			"buffer":0,
			"byteLength":1104,
			"byteOffset":113584,
			"target":34963
		},
		{
			"buffer":0,
			"byteLength":1536,
			"byteOffset":114688,
			"target":34962
		},
		{
			"buffer":0,
			"byteLength":1536,
			"byteOffset":116224,
			"target":34962
		},
		{
			"buffer":0,
			"byteLength":1024,
			"byteOffset":117760,
			"target":34962
		},
		{
			"buffer":0,
			"byteLength":696,
			"byteOffset":118784,
			"target":34963
		},
		{
			"buffer":0,
			"byteLength":1200,
			"byteOffset":119480,
			"target":34962
		},
		{
			"buffer":0,
			"byteLength":1200,
			"byteOffset":120680,
			"target":34962
		},
		{
			"buffer":0,
			"byteLength":800,
			"byteOffset":121880,
			"target":34962
		},
		{
			"buffer":0,
			"byteLength":432,
			"byteOffset":122680,
			"target":34963
		},
		{
			"buffer":0,
			"byteLength":864,
			"byteOffset":123112,
			"target":34962
		},
		{
			"buffer":0,
			"byteLength":864,
			"byteOffset":123976,
			"target":34962
		},
		{
			"buffer":0,
			"byteLength":576,
			"byteOffset":124840,
			"target":34962
		},
		{
			"buffer":0,
			"byteLength":312,
			"byteOffset":125416,
			"target":34963
		},
		{
			"buffer":0,
			"byteLength":9744,
			"byteOffset":125728,
			"target":34962
		},
		{
			"buffer":0,
			"byteLength":9744,
			"byteOffset":135472,
			"target":34962
		},
		{
			"buffer":0,
			"byteLength":6496,
			"byteOffset":145216,
			"target":34962
		},
		{
			"buffer":0,
			"byteLength":5340,
			"byteOffset":151712,
			"target":34963
		},
		{
			"buffer":0,
			"byteLength":792,
			"byteOffset":157052,
			"target":34962
		},
		{
			"buffer":0,
			"byteLength":792,
			"byteOffset":157844,
			"target":34962
		},
		{
			"buffer":0,
			"byteLength":528,
			"byteOffset":158636,
			"target":34962
		},
		{
			"buffer":0,
			"byteLength":432,
			"byteOffset":159164,
			"target":34963
		},
		{
			"buffer":0,
			"byteLength":384,
			"byteOffset":159596,
			"target":34962
		},
		{
			"buffer":0,
			"byteLength":384,
			"byteOffset":159980,
			"target":34962
		},
		{
			"buffer":0,
			"byteLength":256,
			"byteOffset":160364,
			"target":34962
		},
		{
			"buffer":0,
			"byteLength":264,
			"byteOffset":160620,
			"target":34963
		},
		{
			"buffer":0,
			"byteLength":120,
			"byteOffset":160884,
			"target":34962
		},
		{
			"buffer":0,
			"byteLength":120,
			"byteOffset":161004,
			"target":34962
		},
		{
			"buffer":0,
			"byteLength":80,
			"byteOffset":161124,
			"target":34962
		},
		{
			"buffer":0,
			"byteLength":48,
			"byteOffset":161204,
			"target":34963
		}
	],
	"buffers":[
		{
			"byteLength":161252,
			"uri":"mustang.bin"
		}
	]
}
